<svg width="85" height="84" viewBox="0 0 85 84" fill="none" xmlns="http://www.w3.org/2000/svg">
<path d="M42.5 26.7068C33.9808 26.7068 27.0689 33.7793 27.0689 42.1378C27.0689 50.6571 33.9808 57.5689 42.5 57.5689C50.8585 57.5689 57.9311 50.6571 57.9311 42.1378C57.9311 33.7793 50.8585 26.7068 42.5 26.7068ZM82.0421 39.7267L66.7718 32.1719L72.237 15.9372C72.8799 13.8475 70.7903 11.7579 68.7007 12.4009L52.4659 17.866L44.9111 2.59571C43.9467 0.506084 40.8926 0.506084 39.9282 2.59571L32.3734 17.866L16.1386 12.4009C14.049 11.7579 11.9593 13.8475 12.6023 15.9372L18.0675 32.1719L2.79712 39.7267C0.707498 40.6912 0.707498 43.7452 2.79712 44.7097L18.0675 52.2645L12.6023 68.4993C11.9593 70.5889 14.049 72.6785 16.1386 72.0356L32.3734 66.5704L39.9282 81.8407C40.8926 83.9303 43.9467 83.9303 44.9111 81.8407L52.4659 66.5704L68.7007 72.0356C70.7903 72.6785 72.8799 70.5889 72.237 68.4993L66.7718 52.2645L82.0421 44.7097C84.1318 43.7452 84.1318 40.6912 82.0421 39.7267ZM56.9666 56.7652C48.9296 64.8022 35.9096 64.8022 27.8726 56.7652C19.8356 48.7282 19.8356 35.7082 27.8726 27.6712C35.9096 19.6342 48.9296 19.6342 56.9666 27.6712C65.0037 35.7082 65.0037 48.7282 56.9666 56.7652Z" fill="#F8D74A"/>
</svg>
